<svg id="Layer_1" data-name="Layer 1" xmlns="http://www.w3.org/2000/svg" viewBox="0 0 455 302"><defs><style>.cls-1{fill:#fff;}</style></defs><rect class="cls-1" x="425.5" y="0.5" width="29" height="29"/><path d="M886,196v28H858V196h28m1-1H857v30h30V195Z" transform="translate(-432 -195)"/><rect class="cls-1" x="394.5" y="0.5" width="29" height="29"/><path d="M855,196v28H827V196h28m1-1H826v30h30V195Z" transform="translate(-432 -195)"/><rect class="cls-1" x="363.5" y="0.5" width="29" height="29"/><path d="M824,196v28H796V196h28m1-1H795v30h30V195Z" transform="translate(-432 -195)"/><rect class="cls-1" x="332.5" y="0.5" width="29" height="29"/><path d="M793,196v28H765V196h28m1-1H764v30h30V195Z" transform="translate(-432 -195)"/><rect class="cls-1" x="301.5" y="0.5" width="29" height="29"/><path d="M762,196v28H734V196h28m1-1H733v30h30V195Z" transform="translate(-432 -195)"/><rect class="cls-1" x="270.5" y="0.5" width="29" height="29"/><path d="M731,196v28H703V196h28m1-1H702v30h30V195Z" transform="translate(-432 -195)"/><rect class="cls-1" x="239.5" y="0.5" width="29" height="29"/><path d="M700,196v28H672V196h28m1-1H671v30h30V195Z" transform="translate(-432 -195)"/><rect class="cls-1" x="186.5" y="0.5" width="29" height="29"/><path d="M647,196v28H619V196h28m1-1H618v30h30V195Z" transform="translate(-432 -195)"/><rect class="cls-1" x="155.5" y="0.5" width="29" height="29"/><path d="M616,196v28H588V196h28m1-1H587v30h30V195Z" transform="translate(-432 -195)"/><rect class="cls-1" x="124.5" y="0.5" width="29" height="29"/><path d="M585,196v28H557V196h28m1-1H556v30h30V195Z" transform="translate(-432 -195)"/><rect class="cls-1" x="93.5" y="0.5" width="29" height="29"/><path d="M554,196v28H526V196h28m1-1H525v30h30V195Z" transform="translate(-432 -195)"/><rect class="cls-1" x="62.5" y="0.5" width="29" height="29"/><path d="M523,196v28H495V196h28m1-1H494v30h30V195Z" transform="translate(-432 -195)"/><rect class="cls-1" x="31.5" y="0.5" width="29" height="29"/><path d="M492,196v28H464V196h28m1-1H463v30h30V195Z" transform="translate(-432 -195)"/><rect class="cls-1" x="0.5" y="0.5" width="29" height="29"/><path d="M461,196v28H433V196h28m1-1H432v30h30V195Z" transform="translate(-432 -195)"/><rect class="cls-1" x="425.5" y="87.5" width="29" height="29"/><path d="M886,283v28H858V283h28m1-1H857v30h30V282Z" transform="translate(-432 -195)"/><rect class="cls-1" x="394.5" y="87.5" width="29" height="29"/><path d="M855,283v28H827V283h28m1-1H826v30h30V282Z" transform="translate(-432 -195)"/><rect class="cls-1" x="363.5" y="87.5" width="29" height="29"/><path d="M824,283v28H796V283h28m1-1H795v30h30V282Z" transform="translate(-432 -195)"/><rect class="cls-1" x="332.5" y="87.5" width="29" height="29"/><path d="M793,283v28H765V283h28m1-1H764v30h30V282Z" transform="translate(-432 -195)"/><rect class="cls-1" x="301.5" y="87.5" width="29" height="29"/><path d="M762,283v28H734V283h28m1-1H733v30h30V282Z" transform="translate(-432 -195)"/><rect class="cls-1" x="270.5" y="87.5" width="29" height="29"/><path d="M731,283v28H703V283h28m1-1H702v30h30V282Z" transform="translate(-432 -195)"/><rect class="cls-1" x="239.5" y="87.5" width="29" height="29"/><path d="M700,283v28H672V283h28m1-1H671v30h30V282Z" transform="translate(-432 -195)"/><rect class="cls-1" x="186.5" y="87.5" width="29" height="29"/><path d="M647,283v28H619V283h28m1-1H618v30h30V282Z" transform="translate(-432 -195)"/><rect class="cls-1" x="155.5" y="87.5" width="29" height="29"/><path d="M616,283v28H588V283h28m1-1H587v30h30V282Z" transform="translate(-432 -195)"/><rect class="cls-1" x="124.5" y="87.5" width="29" height="29"/><path d="M585,283v28H557V283h28m1-1H556v30h30V282Z" transform="translate(-432 -195)"/><rect class="cls-1" x="93.5" y="87.5" width="29" height="29"/><path d="M554,283v28H526V283h28m1-1H525v30h30V282Z" transform="translate(-432 -195)"/><rect class="cls-1" x="62.5" y="87.5" width="29" height="29"/><path d="M523,283v28H495V283h28m1-1H494v30h30V282Z" transform="translate(-432 -195)"/><rect class="cls-1" x="31.5" y="87.5" width="29" height="29"/><path d="M492,283v28H464V283h28m1-1H463v30h30V282Z" transform="translate(-432 -195)"/><rect class="cls-1" x="0.5" y="87.5" width="29" height="29"/><path d="M461,283v28H433V283h28m1-1H432v30h30V282Z" transform="translate(-432 -195)"/><rect class="cls-1" x="425.5" y="185.5" width="29" height="29"/><path d="M886,381v28H858V381h28m1-1H857v30h30V380Z" transform="translate(-432 -195)"/><rect class="cls-1" x="394.5" y="185.5" width="29" height="29"/><path d="M855,381v28H827V381h28m1-1H826v30h30V380Z" transform="translate(-432 -195)"/><rect class="cls-1" x="363.5" y="185.5" width="29" height="29"/><path d="M824,381v28H796V381h28m1-1H795v30h30V380Z" transform="translate(-432 -195)"/><rect class="cls-1" x="332.5" y="185.5" width="29" height="29"/><path d="M793,381v28H765V381h28m1-1H764v30h30V380Z" transform="translate(-432 -195)"/><rect class="cls-1" x="301.5" y="185.5" width="29" height="29"/><path d="M762,381v28H734V381h28m1-1H733v30h30V380Z" transform="translate(-432 -195)"/><rect class="cls-1" x="270.5" y="185.5" width="29" height="29"/><path d="M731,381v28H703V381h28m1-1H702v30h30V380Z" transform="translate(-432 -195)"/><rect class="cls-1" x="239.5" y="185.5" width="29" height="29"/><path d="M700,381v28H672V381h28m1-1H671v30h30V380Z" transform="translate(-432 -195)"/><rect class="cls-1" x="186.5" y="185.5" width="29" height="29"/><path d="M647,381v28H619V381h28m1-1H618v30h30V380Z" transform="translate(-432 -195)"/><rect class="cls-1" x="155.5" y="185.5" width="29" height="29"/><path d="M616,381v28H588V381h28m1-1H587v30h30V380Z" transform="translate(-432 -195)"/><rect class="cls-1" x="124.5" y="185.5" width="29" height="29"/><path d="M585,381v28H557V381h28m1-1H556v30h30V380Z" transform="translate(-432 -195)"/><rect class="cls-1" x="93.5" y="185.5" width="29" height="29"/><path d="M554,381v28H526V381h28m1-1H525v30h30V380Z" transform="translate(-432 -195)"/><rect class="cls-1" x="62.5" y="185.5" width="29" height="29"/><path d="M523,381v28H495V381h28m1-1H494v30h30V380Z" transform="translate(-432 -195)"/><rect class="cls-1" x="31.5" y="185.5" width="29" height="29"/><path d="M492,381v28H464V381h28m1-1H463v30h30V380Z" transform="translate(-432 -195)"/><rect class="cls-1" x="0.5" y="185.5" width="29" height="29"/><path d="M461,381v28H433V381h28m1-1H432v30h30V380Z" transform="translate(-432 -195)"/><rect class="cls-1" x="425.5" y="272.5" width="29" height="29"/><path d="M886,468v28H858V468h28m1-1H857v30h30V467Z" transform="translate(-432 -195)"/><rect class="cls-1" x="394.5" y="272.5" width="29" height="29"/><path d="M855,468v28H827V468h28m1-1H826v30h30V467Z" transform="translate(-432 -195)"/><rect class="cls-1" x="363.5" y="272.5" width="29" height="29"/><path d="M824,468v28H796V468h28m1-1H795v30h30V467Z" transform="translate(-432 -195)"/><rect class="cls-1" x="332.5" y="272.5" width="29" height="29"/><path d="M793,468v28H765V468h28m1-1H764v30h30V467Z" transform="translate(-432 -195)"/><rect class="cls-1" x="301.5" y="272.5" width="29" height="29"/><path d="M762,468v28H734V468h28m1-1H733v30h30V467Z" transform="translate(-432 -195)"/><rect class="cls-1" x="270.5" y="272.5" width="29" height="29"/><path d="M731,468v28H703V468h28m1-1H702v30h30V467Z" transform="translate(-432 -195)"/><rect class="cls-1" x="239.5" y="272.5" width="29" height="29"/><path d="M700,468v28H672V468h28m1-1H671v30h30V467Z" transform="translate(-432 -195)"/><rect class="cls-1" x="186.5" y="272.5" width="29" height="29"/><path d="M647,468v28H619V468h28m1-1H618v30h30V467Z" transform="translate(-432 -195)"/><rect class="cls-1" x="155.5" y="272.5" width="29" height="29"/><path d="M616,468v28H588V468h28m1-1H587v30h30V467Z" transform="translate(-432 -195)"/><rect class="cls-1" x="124.5" y="272.5" width="29" height="29"/><path d="M585,468v28H557V468h28m1-1H556v30h30V467Z" transform="translate(-432 -195)"/><rect class="cls-1" x="93.5" y="272.5" width="29" height="29"/><path d="M554,468v28H526V468h28m1-1H525v30h30V467Z" transform="translate(-432 -195)"/><rect class="cls-1" x="62.5" y="272.5" width="29" height="29"/><path d="M523,468v28H495V468h28m1-1H494v30h30V467Z" transform="translate(-432 -195)"/><rect class="cls-1" x="31.5" y="272.5" width="29" height="29"/><path d="M492,468v28H464V468h28m1-1H463v30h30V467Z" transform="translate(-432 -195)"/><rect class="cls-1" x="0.5" y="272.5" width="29" height="29"/><path d="M461,468v28H433V468h28m1-1H432v30h30V467Z" transform="translate(-432 -195)"/></svg>